<!-- Copyright © 2026 Rutgers, the State University of New Jersey. All rights reserved except as defined by the Rutgers Non-Commercial License, included with this software. -->
<svg version="1.1" id="IconsRepoEditor" xmlns="http://www.w3.org/2000/svg" xmlns:xlink="http://www.w3.org/1999/xlink" x="0px" y="0px" viewBox="0 0 512 512" style="enable-background:new 0 0 512 512;" xml:space="preserve" width="16px" height="16px" fill="#000000" stroke="#000000" stroke-width="3"><g id="IconsRepo_bgCarrier"></g> <rect x="163.641" y="169.453" transform="matrix(0.7071 -0.7071 0.7071 0.7071 -128.5961 261.109)" width="174.495" height="232.66"></rect> <rect x="384.631" y="99.711" transform="matrix(0.7071 -0.7071 0.7071 0.7071 40.0328 330.9679)" width="69.798" height="34.899"></rect> <path d="M501.779,150.062l-20.565-20.565l-74.033,74.033l-74.032-74.033l74.032-74.033l-20.565-20.564 c-13.629-13.629-35.727-13.629-49.355-0.001l-82.259,82.259L419.52,281.675l82.259-82.259 C515.407,185.788,515.406,163.69,501.779,150.062z"></path> <path d="M82.258,289.9l-32.903,32.904c31.803,31.8,31.802,83.362,0.001,115.161L0,487.323h98.711 c31.802-31.803,83.362-31.803,115.162,0l32.903-32.904L82.258,289.9z"></path> </svg>