<!-- Copyright © 2026 Rutgers, the State University of New Jersey. All rights reserved except as defined by the Rutgers Non-Commercial License, included with this software. -->
<svg version="1.1" id="IconsRepoEditor" xmlns="http://www.w3.org/2000/svg" xmlns:xlink="http://www.w3.org/1999/xlink" x="0px" y="0px" viewBox="0 0 512 512" style="enable-background:new 0 0 512 512;" xml:space="preserve" width="16px" height="16px" fill="#000000" stroke="#000000" stroke-width="3"><g id="IconsRepo_bgCarrier"></g> <path d="M498.266,146.816L395.107,43.657c-8.856-8.857-20.633-13.735-33.158-13.735c-12.526,0-24.301,4.879-33.157,13.735 L59.842,312.606l11.053,11.053c10.825,10.825,16.786,25.217,16.786,40.527c-0.001,15.309-5.962,29.702-16.788,40.527L0,475.607 l132.632-0.001l4.578-4.579c10.825-10.825,25.218-16.786,40.527-16.786s29.702,5.963,40.527,16.786l11.053,11.052L498.266,213.13 c8.856-8.855,13.734-20.631,13.734-33.156C512,167.447,507.122,155.673,498.266,146.816z M413.528,106.288l22.106,22.106 l-51.58,51.579l-22.105-22.105L413.528,106.288z M228.351,438.835c-14.741-10.307-32.251-15.857-50.613-15.857 c-21.403,0-41.649,7.54-57.701,21.365l-44.565,0.001L93,426.816c16.73-16.729,25.943-38.971,25.943-62.632 c0-18.362-5.55-35.872-15.856-50.613l8.334-8.334l125.264,125.264L228.351,438.835z M258.79,408.396L133.527,283.132 l110.527-110.527l125.264,125.264L258.79,408.396z M476.16,191.026l-84.737,84.737L266.159,150.499l84.738-84.737 c2.952-2.952,6.877-4.579,11.051-4.579c4.175,0,8.1,1.627,11.053,4.579l18.422,18.422l-73.685,73.685l66.317,66.316l73.685-73.684 l18.422,18.422c2.952,2.952,4.578,6.878,4.578,11.052C480.738,184.148,479.113,188.073,476.16,191.026z"></path> </svg>