<!-- Copyright © 2026 Rutgers, the State University of New Jersey. All rights reserved except as defined by the Rutgers Non-Commercial License, included with this software. -->
<svg viewBox="0 0 16 16" xmlns="http://www.w3.org/2000/svg">
  <path
    d="M3.828 5.243L2.343 3.757a1 1 0 0 1 1.414-1.414l1.486 1.485a5.027 5.027 0 0 0-1.415 1.415zM7 3.1V1a1 1 0 1 1 2 0v2.1a5.023 5.023 0 0 0-2 0zm3.757.728l1.486-1.485a1 1 0 1 1 1.414 1.414l-1.485 1.486a5.027 5.027 0 0 0-1.415-1.415zM12.9 7H15a1 1 0 0 1 0 2h-2.1a5.023 5.023 0 0 0 0-2zm-.728 3.757l1.485 1.486a1 1 0 1 1-1.414 1.414l-1.486-1.485a5.027 5.027 0 0 0 1.415-1.415zM9 12.9V15a1 1 0 0 1-2 0v-2.1a5.023 5.023 0 0 0 2 0zm-3.757-.728l-1.486 1.485a1 1 0 0 1-1.414-1.414l1.485-1.486a5.027 5.027 0 0 0 1.415 1.415zM3.1 9H1a1 1 0 1 1 0-2h2.1a5.023 5.023 0 0 0 0 2zM8 11a3 3 0 1 1 0-6 3 3 0 0 1 0 6z" fill-rule="evenodd"/>
</svg>