<!-- Copyright © 2026 Rutgers, the State University of New Jersey. All rights reserved except as defined by the Rutgers Non-Commercial License, included with this software. -->
<?xml version="1.0" ?><svg enable-background="new 0 0 32 32" version="1.1" viewBox="0 0 32 32" xml:space="preserve" xmlns="http://www.w3.org/2000/svg" xmlns:xlink="http://www.w3.org/1999/xlink"><g id="Outline_copy"><g><path d="M16,0.005c-8.837,0-16,7.163-16,16s7.163,16,16,16s16-7.163,16-16S24.837,0.005,16,0.005z M22.718,21.303    c0.391,0.391,0.391,1.023,0,1.414c-0.195,0.195-0.451,0.293-0.707,0.293s-0.512-0.098-0.707-0.293L16,17.414l-5.304,5.303    c-0.195,0.195-0.451,0.293-0.707,0.293s-0.512-0.098-0.707-0.293c-0.391-0.391-0.391-1.023,0-1.414L14.586,16l-5.304-5.303    c-0.391-0.391-0.391-1.023,0-1.414s1.023-0.391,1.414,0L16,14.586l5.304-5.303c0.391-0.391,1.023-0.391,1.414,0    s0.391,1.023,0,1.414L17.414,16L22.718,21.303z"/></g></g></svg>